<?xml version="1.0" encoding="UTF-8" standalone="no"?>
<svg
   xmlns:dc="http://purl.org/dc/elements/1.1/"
   xmlns:cc="http://creativecommons.org/ns#"
   xmlns:rdf="http://www.w3.org/1999/02/22-rdf-syntax-ns#"
   xmlns:svg="http://www.w3.org/2000/svg"
   xmlns="http://www.w3.org/2000/svg"
   viewBox="0 0 2360.55 421.07126"
   height="421.07126"
   width="2360.55"
   xml:space="preserve"
   version="1.1"
   id="svg2"><metadata
     id="metadata8"><rdf:RDF><cc:Work
         rdf:about=""><dc:format>image/svg+xml</dc:format><dc:type
           rdf:resource="http://purl.org/dc/dcmitype/StillImage" /></cc:Work></rdf:RDF></metadata><defs
     id="defs6"><clipPath
       id="clipPath16"
       clipPathUnits="userSpaceOnUse"><path
         id="path18"
         d="m 0,336.857 1888.439,0 L 1888.439,0 0,0 0,336.857 Z" /></clipPath></defs><g
     transform="matrix(1.25,0,0,-1.25,0,421.07125)"
     id="g10"><g
       id="g12"><g
         clip-path="url(#clipPath16)"
         id="g14"><g
           transform="translate(1743.051,9.0724)"
           id="g20"><path
             id="path22"
             style="fill:#4194d7;fill-opacity:1;fill-rule:nonzero;stroke:none"
             d="m 0,0 -281.13,0 c -48.463,0 -87.891,39.427 -87.891,87.89 l 0,142.932 c 0,48.463 39.428,87.891 87.891,87.891 l 68.898,0 c 3.313,0 6,-2.687 6,-6 0,-3.314 -2.687,-6 -6,-6 l -68.898,0 c -41.847,0 -75.891,-34.044 -75.891,-75.891 l 0,-142.932 c 0,-41.846 34.044,-75.89 75.891,-75.89 L 0,12 C 3.313,12 6,9.313 6,6 6,2.687 3.313,0 0,0" /></g><g
           transform="translate(1796.5491,9.0724)"
           id="g24"><path
             id="path26"
             style="fill:#4194d7;fill-opacity:1;fill-rule:nonzero;stroke:none"
             d="m 0,0 -19.633,0 c -3.313,0 -6,2.687 -6,6 0,3.313 2.687,6 6,6 L 0,12 c 41.847,0 75.891,34.044 75.891,75.89 l 0,142.932 c 0,41.847 -34.044,75.891 -75.891,75.891 l -220.575,0 c -3.314,0 -6,2.686 -6,6 0,3.313 2.686,6 6,6 l 220.575,0 c 48.463,0 87.891,-39.428 87.891,-87.891 l 0,-142.932 C 87.891,39.427 48.463,0 0,0" /></g><g
           transform="translate(1751.8469,241.0567)"
           id="g28"><path
             id="path30"
             style="fill:#4194d7;fill-opacity:1;fill-rule:nonzero;stroke:none"
             d="m 0,0 c -10.06,0 -18.243,-7.96 -18.243,-17.743 0,-9.783 8.183,-17.743 18.243,-17.743 10.128,0 18.368,7.96 18.368,17.743 C 18.368,-7.96 10.128,0 0,0 m 0,-47.486 c -16.676,0 -30.243,13.342 -30.243,29.743 C -30.243,-1.343 -16.676,12 0,12 16.745,12 30.368,-1.343 30.368,-17.743 30.368,-34.144 16.745,-47.486 0,-47.486 m -53.11,-4.374 c -10.06,0 -18.244,-7.96 -18.244,-17.744 0,-9.784 8.184,-17.744 18.244,-17.744 10.128,0 18.368,7.96 18.368,17.744 0,9.784 -8.24,17.744 -18.368,17.744 m 0,-47.488 c -16.676,0 -30.244,13.343 -30.244,29.744 0,16.401 13.568,29.744 30.244,29.744 16.745,0 30.368,-13.343 30.368,-29.744 0,-16.401 -13.623,-29.744 -30.368,-29.744 m 106.22,0 c -16.676,0 -30.244,13.343 -30.244,29.744 0,9.577 4.736,18.625 12.667,24.204 2.711,1.906 6.453,1.255 8.36,-1.455 1.907,-2.711 1.254,-6.454 -1.455,-8.36 -4.742,-3.335 -7.572,-8.714 -7.572,-14.389 0,-9.784 8.185,-17.744 18.244,-17.744 10.06,0 18.244,7.96 18.244,17.744 0,9.784 -8.184,17.744 -18.244,17.744 -3.313,0 -6,2.686 -6,6 0,3.313 2.687,6 6,6 16.676,0 30.244,-13.343 30.244,-29.744 0,-16.401 -13.568,-29.744 -30.244,-29.744 m -326.028,-28.367 c -3.313,0 -6,2.687 -6,6 l 0,21.493 -38.113,0 c -6.698,0 -11.748,5.266 -11.748,12.248 l 0,27.118 c 0,6.96 5.101,12.623 11.373,12.623 l 38.612,0 0,42.486 c 0,6.892 5.383,12.499 11.999,12.499 l 27.367,0 c 6.791,0 12.748,-5.841 12.748,-12.499 l 0,-42.486 10.921,0 c 3.314,0 6,-2.687 6,-6 0,-3.314 -2.686,-6 -6,-6 l -16.921,0 c -3.313,0 -6,2.686 -6,6 l 0,48.408 c -0.106,0.23 -0.527,0.553 -0.764,0.578 l -27.198,-0.001 c -0.062,-0.083 -0.152,-0.252 -0.152,-0.499 l 0,-48.486 c 0,-3.314 -2.686,-6 -6,-6 l -43.871,0 c -0.063,-0.168 -0.114,-0.386 -0.114,-0.623 l 0,-27.118 c 0,-0.096 0.006,-0.178 0.015,-0.247 l 0.358,-10e-4 43.488,0 c 3.314,0 6,-2.686 6,-6 l 0,-27.493 c 0,-3.313 -2.686,-6 -6,-6 M 0,-151.208 c -16.676,0 -30.243,13.287 -30.243,29.619 0.157,16.703 13.441,29.743 30.243,29.743 16.745,0 30.368,-13.342 30.368,-29.743 0,-3.313 -2.686,-6 -6,-6 -3.313,0 -6,2.687 -6,6 0,9.949 -8.068,17.743 -18.368,17.743 -10.136,0 -18.149,-7.818 -18.243,-17.8 0,-9.658 8.183,-17.562 18.243,-17.562 5.937,0 11.343,2.615 14.83,7.174 2.014,2.634 5.779,3.134 8.41,1.121 2.633,-2.013 3.135,-5.778 1.121,-8.41 C 18.586,-146.876 9.706,-151.208 0,-151.208 m -239.553,-3.999 -27.367,0 c -6.727,0 -11.998,5.105 -11.998,11.624 l 0,1.374 c 0,3.313 2.687,6 6,6 3.314,0 6,-2.687 6,-6 l 0,-0.998 27.365,0 c 0.281,0 0.604,0.18 0.748,0.316 l 0,48.669 c 0,3.314 2.687,6 6,6 l 47.362,0 c 0.249,0 0.467,0.17 0.502,0.24 l -0.003,27.126 c -0.02,0.194 -0.364,0.575 -0.575,0.629 l -0.673,-0.006 -9.248,0 c -3.314,0 -6,2.686 -6,6 0,3.313 2.686,6 6,6 l 9.997,0 c 6.775,0 12.499,-5.781 12.499,-12.623 l 0,-27.118 c 0,-6.754 -5.608,-12.248 -12.499,-12.248 l -41.362,0 0,-42.861 c 0,-6.572 -5.838,-12.124 -12.748,-12.124" /></g><g
           transform="translate(864.4767,200.9386)"
           id="g32"><path
             id="path34"
             style="fill:#4194d7;fill-opacity:1;fill-rule:nonzero;stroke:none"
             d="m 0,0 -60.177,0 c -3.314,0 -6,2.687 -6,6 0,3.313 2.686,6 6,6 L 0,12 C 3.313,12 6,9.313 6,6 6,2.687 3.313,0 0,0" /></g><g
           transform="translate(804.2995,140.7618)"
           id="g36"><path
             id="path38"
             style="fill:#4194d7;fill-opacity:1;fill-rule:nonzero;stroke:none"
             d="m 0,0 c -3.313,0 -6,2.687 -6,6 l 0,120.354 c 0,3.314 2.687,6 6,6 3.313,0 6,-2.686 6,-6 L 6,6 C 6,2.687 3.313,0 0,0" /></g><g
           transform="translate(1144.6184,240.8731)"
           id="g40"><path
             id="path42"
             style="fill:#4194d7;fill-opacity:1;fill-rule:nonzero;stroke:none"
             d="m 0,0 -0.033,0 -8.396,0.045 c -3.313,0.017 -5.985,2.719 -5.967,6.032 0.017,3.303 2.701,5.968 5.999,5.968 l 0.033,0 L 0.032,12 C 3.345,11.982 6.017,9.281 6,5.968 5.982,2.665 3.299,0 0,0" /></g><g
           transform="translate(1136.2219,240.9181)"
           id="g44"><path
             id="path46"
             style="fill:#4194d7;fill-opacity:1;fill-rule:nonzero;stroke:none"
             d="m 0,0 -47.927,0 c -3.313,0 -6,2.687 -6,6 0,3.313 2.687,6 6,6 L 0,12 C 3.313,12 6,9.313 6,6 6,2.687 3.313,0 0,0" /></g><g
           transform="translate(1055.1814,240.9181)"
           id="g48"><path
             id="path50"
             style="fill:#4194d7;fill-opacity:1;fill-rule:nonzero;stroke:none"
             d="m 0,0 -126.739,0 c -3.313,0 -6,2.687 -6,6 0,3.313 2.687,6 6,6 L 0,12 C 3.313,12 6,9.313 6,6 6,2.687 3.313,0 0,0" /></g><g
           transform="translate(1144.2146,162.3448)"
           id="g52"><path
             id="path54"
             style="fill:#4194d7;fill-opacity:1;fill-rule:nonzero;stroke:none"
             d="m 0,0 -0.033,0 -8.396,0.046 c -3.314,0.018 -5.986,2.719 -5.967,6.033 0.018,3.313 2.716,6.017 6.032,5.967 L 0.032,12 C 3.346,11.981 6.018,9.281 6,5.967 5.981,2.665 3.298,0 0,0" /></g><g
           transform="translate(1135.8181,162.3907)"
           id="g56"><path
             id="path58"
             style="fill:#4194d7;fill-opacity:1;fill-rule:nonzero;stroke:none"
             d="m 0,0 -134.07,0 c -3.314,0 -6,2.687 -6,6 0,3.313 2.686,6 6,6 L 0,12 C 3.313,12 6,9.313 6,6 6,2.687 3.313,0 0,0" /></g><g
           transform="translate(967.8796,162.3907)"
           id="g60"><path
             id="path62"
             style="fill:#4194d7;fill-opacity:1;fill-rule:nonzero;stroke:none"
             d="m 0,0 -39.579,0 c -3.314,0 -6,2.687 -6,6 0,3.313 2.686,6 6,6 L 0,12 C 3.313,12 6,9.313 6,6 6,2.687 3.313,0 0,0" /></g><g
           transform="translate(804.2995,140.7618)"
           id="g64"><path
             id="path66"
             style="fill:#4194d7;fill-opacity:1;fill-rule:nonzero;stroke:none"
             d="m 0,0 c -16.172,0 -31.742,5.896 -43.842,16.604 -2.481,2.197 -2.713,5.989 -0.516,8.47 2.196,2.481 5.988,2.714 8.469,0.517 C -25.985,16.826 -13.24,12 0,12 c 29.874,0 54.177,24.304 54.177,54.177 0,29.874 -24.303,54.177 -54.177,54.177 -29.873,0 -54.177,-24.303 -54.177,-54.177 0,-10.476 2.993,-20.638 8.655,-29.387 1.8,-2.782 1.004,-6.497 -1.778,-8.297 -2.783,-1.801 -6.497,-1.003 -8.297,1.778 -6.921,10.696 -10.58,23.112 -10.58,35.906 0,36.49 29.687,66.177 66.177,66.177 36.49,0 66.177,-29.687 66.177,-66.177 C 66.177,29.687 36.49,0 0,0" /></g><g
           transform="translate(899.3942,85.838)"
           id="g68"><path
             id="path70"
             style="fill:#4194d7;fill-opacity:1;fill-rule:nonzero;stroke:none"
             d="m 0,0 -155.271,0 c -3.314,0 -6,2.687 -6,6 0,3.313 2.686,6 6,6 L 0,12 C 3.314,12 6,9.313 6,6 6,2.687 3.314,0 0,0" /></g><g
           transform="translate(1144.3406,85.838)"
           id="g72"><path
             id="path74"
             style="fill:#4194d7;fill-opacity:1;fill-rule:nonzero;stroke:none"
             d="m 0,0 -212.584,0 c -3.314,0 -6,2.687 -6,6 0,3.313 2.686,6 6,6 L 0,12 C 3.313,12 6,9.313 6,6 6,2.687 3.313,0 0,0" /></g><g
           transform="translate(1111.5334,9.0724)"
           id="g76"><path
             id="path78"
             style="fill:#4194d7;fill-opacity:1;fill-rule:nonzero;stroke:none"
             d="m 0,0 -334.628,0 c -48.462,0 -87.89,39.427 -87.89,87.89 l 0,142.932 c 0,48.463 39.428,87.891 87.89,87.891 l 90.879,0 c 3.314,0 6,-2.687 6,-6 0,-3.314 -2.686,-6 -6,-6 l -90.879,0 c -41.846,0 -75.89,-34.044 -75.89,-75.891 l 0,-142.932 c 0,-41.846 34.044,-75.89 75.89,-75.89 L 0,12 c 41.846,0 75.891,34.044 75.891,75.89 0,3.313 2.686,6 6,6 3.314,0 6,-2.687 6,-6 C 87.891,39.427 48.463,0 0,0" /></g><g
           transform="translate(1193.4241,123.1261)"
           id="g80"><path
             id="path82"
             style="fill:#4194d7;fill-opacity:1;fill-rule:nonzero;stroke:none"
             d="m 0,0 c -3.313,0 -6,2.687 -6,6 l 0,110.769 c 0,41.846 -34.044,75.89 -75.891,75.89 l -198.592,0 c -3.313,0 -6,2.687 -6,6 0,3.314 2.687,6 6,6 l 198.592,0 C -33.428,204.659 6,165.231 6,116.769 L 6,6 C 6,2.687 3.313,0 0,0" /></g><g
           transform="translate(193.8893,9.0704)"
           id="g84"><path
             id="path86"
             style="fill:#4194d7;fill-opacity:1;fill-rule:nonzero;stroke:none"
             d="m 0,0 c -2.516,0 -4.859,1.595 -5.694,4.113 -1.041,3.139 0.654,6.527 3.787,7.577 1.305,0.446 30.808,10.951 30.873,47.406 0.084,46.953 37.277,47.525 37.653,47.525 0.04,-0.007 0.075,0 0.112,-10e-4 0.381,-0.007 38.097,-1.224 38.134,-47.722 0.029,-36.149 29.629,-46.782 30.888,-47.216 3.124,-1.078 4.799,-4.484 3.734,-7.612 -1.066,-3.128 -4.448,-4.809 -7.581,-3.756 C 131.5,0.451 121.848,3.762 112.28,12.612 103.433,20.796 92.884,35.467 92.865,58.889 92.853,73.565 88.476,83.997 79.854,89.894 73.729,94.083 67.372,94.572 66.562,94.619 65.856,94.589 59.66,94.22 53.692,90.12 45.274,84.337 40.992,73.892 40.966,59.074 40.924,35.469 30.374,20.758 21.531,12.573 11.956,3.711 2.296,0.441 1.89,0.307 1.263,0.1 0.626,0 0,0" /></g><g
           transform="translate(377.1452,139.171)"
           id="g88"><path
             id="path90"
             style="fill:#4194d7;fill-opacity:1;fill-rule:nonzero;stroke:none"
             d="m 0,0 c -22.343,0 -40.52,18.178 -40.52,40.521 0,3.313 2.687,6 6,6 3.313,0 6,-2.687 6,-6 C -28.52,24.794 -15.726,12 0,12 15.726,12 28.52,24.794 28.52,40.521 28.52,56.246 15.726,69.04 0,69.04 c -8.373,0 -16.292,-3.66 -21.726,-10.043 -2.148,-2.523 -5.934,-2.828 -8.458,-0.679 -2.523,2.149 -2.827,5.935 -0.679,8.458 C -23.145,75.841 -11.896,81.04 0,81.04 22.343,81.04 40.52,62.863 40.52,40.521 40.52,18.178 22.343,0 0,0" /></g><g
           transform="translate(377.3869,110.3468)"
           id="g92"><path
             id="path94"
             style="fill:#4194d7;fill-opacity:1;fill-rule:nonzero;stroke:none"
             d="m 0,0 c -37.886,0 -68.709,30.822 -68.709,68.709 0,37.887 30.823,68.709 68.709,68.709 21.97,0 42.788,-10.637 55.687,-28.454 1.943,-2.684 1.343,-6.436 -1.341,-8.379 -2.683,-1.943 -6.436,-1.344 -8.379,1.342 C 35.317,116.636 18.134,125.418 0,125.418 -31.27,125.418 -56.709,99.979 -56.709,68.709 -56.709,37.439 -31.27,12 0,12 c 31.27,0 56.709,25.439 56.709,56.709 0,3.313 2.687,6 6,6 3.313,0 6,-2.687 6,-6 C 68.709,30.822 37.886,0 0,0" /></g><g
           transform="translate(142.4797,139.2589)"
           id="g96"><path
             id="path98"
             style="fill:#4194d7;fill-opacity:1;fill-rule:nonzero;stroke:none"
             d="m 0,0 c -22.343,0 -40.52,18.178 -40.52,40.521 0,22.342 18.177,40.519 40.52,40.519 18.99,0 35.654,-13.46 39.623,-32.005 0.595,-2.783 0.897,-5.647 0.897,-8.514 0,-3.314 -2.687,-6 -6,-6 -3.313,0 -6,2.686 -6,6 0,2.024 -0.212,4.043 -0.632,6.002 C 25.096,59.57 13.368,69.04 0,69.04 -15.726,69.04 -28.52,56.246 -28.52,40.521 -28.52,24.794 -15.726,12 0,12 c 9.754,0 18.731,4.907 24.014,13.126 1.792,2.786 5.504,3.594 8.291,1.804 2.788,-1.792 3.595,-5.504 1.803,-8.292 C 26.608,6.968 13.857,0 0,0" /></g><g
           transform="translate(142.7219,110.4337)"
           id="g100"><path
             id="path102"
             style="fill:#4194d7;fill-opacity:1;fill-rule:nonzero;stroke:none"
             d="m 0,0 c -37.887,0 -68.709,30.823 -68.709,68.71 0,13.769 4.059,27.054 11.738,38.42 1.856,2.746 5.585,3.467 8.33,1.612 2.746,-1.855 3.468,-5.585 1.613,-8.331 C -53.362,91.037 -56.709,80.075 -56.709,68.71 -56.709,37.44 -31.27,12 0,12 c 31.27,0 56.709,25.44 56.709,56.71 0,31.269 -25.439,56.709 -56.709,56.709 -10.7,0 -21.119,-2.993 -30.129,-8.656 -2.807,-1.763 -6.51,-0.919 -8.273,1.887 -1.763,2.806 -0.918,6.509 1.887,8.273 10.926,6.866 23.553,10.496 36.515,10.496 37.886,0 68.709,-30.822 68.709,-68.709 C 68.709,30.823 37.886,0 0,0" /></g><g
           transform="translate(427.5182,9.0724)"
           id="g104"><path
             id="path106"
             style="fill:#4194d7;fill-opacity:1;fill-rule:nonzero;stroke:none"
             d="m 0,0 -99.81,0 c -3.314,0 -6,2.687 -6,6 0,3.313 2.686,6 6,6 L 0,12 c 41.846,0 75.89,34.044 75.89,75.89 l 0,104.413 c 0,3.313 2.687,6 6,6 3.314,0 6,-2.687 6,-6 l 0,-104.413 C 87.89,39.427 48.463,0 0,0" /></g><g
           transform="translate(509.4084,233.8946)"
           id="g108"><path
             id="path110"
             style="fill:#4194d7;fill-opacity:1;fill-rule:nonzero;stroke:none"
             d="m 0,0 c -3.314,0 -6,2.687 -6,6 0,41.847 -34.044,75.891 -75.89,75.891 l -299.414,0 c -3.313,0 -6,2.686 -6,6 0,3.313 2.687,6 6,6 l 299.414,0 C -33.427,93.891 6,54.463 6,6 6,2.687 3.313,0 0,0" /></g><g
           transform="translate(92.8903,9.0724)"
           id="g112"><path
             id="path114"
             style="fill:#4194d7;fill-opacity:1;fill-rule:nonzero;stroke:none"
             d="m 0,0 c -48.463,0 -87.89,39.427 -87.89,87.89 l 0,142.932 c 0,48.463 39.427,87.891 87.89,87.891 3.313,0 6,-2.687 6,-6 0,-3.314 -2.687,-6 -6,-6 -41.846,0 -75.89,-34.044 -75.89,-75.891 l 0,-142.932 C -75.89,46.044 -41.846,12 0,12 3.313,12 6,9.313 6,6 6,2.687 3.313,0 0,0" /></g><g
           transform="translate(193.8903,9.0724)"
           id="g116"><path
             id="path118"
             style="fill:#4194d7;fill-opacity:1;fill-rule:nonzero;stroke:none"
             d="m 0,0 -49.346,0 c -3.314,0 -6,2.687 -6,6 0,3.313 2.686,6 6,6 L 0,12 C 3.313,12 6,9.313 6,6 6,2.687 3.313,0 0,0" /></g></g></g></g></svg>