<?xml version="1.0" encoding="UTF-8" standalone="no"?>
<svg
   xmlns:dc="http://purl.org/dc/elements/1.1/"
   xmlns:cc="http://creativecommons.org/ns#"
   xmlns:rdf="http://www.w3.org/1999/02/22-rdf-syntax-ns#"
   xmlns:svg="http://www.w3.org/2000/svg"
   xmlns="http://www.w3.org/2000/svg"
   viewBox="0 0 654.74249 152.125"
   height="152.125"
   width="654.74249"
   xml:space="preserve"
   version="1.1"
   id="svg2"><metadata
     id="metadata8"><rdf:RDF><cc:Work
         rdf:about=""><dc:format>image/svg+xml</dc:format><dc:type
           rdf:resource="http://purl.org/dc/dcmitype/StillImage" /></cc:Work></rdf:RDF></metadata><defs
     id="defs6"><clipPath
       id="clipPath16"
       clipPathUnits="userSpaceOnUse"><path
         id="path18"
         d="m 0,121.7 523.794,0 0,-121.7 L 0,0 0,121.7 Z" /></clipPath></defs><g
     transform="matrix(1.25,0,0,-1.25,0,152.125)"
     id="g10"><g
       id="g12"><g
         clip-path="url(#clipPath16)"
         id="g14"><g
           transform="translate(473.6842,42.2671)"
           id="g20"><path
             id="path22"
             style="fill:#ffffff;fill-opacity:1;fill-rule:nonzero;stroke:none"
             d="m 0,0 -30.452,0 c -1.838,0 -3.357,1.519 -3.357,3.357 l 0,20.301 7.833,0 c -0.72,-1.518 -1.119,-3.197 -1.119,-4.955 0,-6.554 5.275,-11.829 11.829,-11.829 6.554,0 11.829,5.275 11.829,11.829 0,1.758 -0.4,3.437 -1.119,4.955 l 7.833,0 0,-20.381 C 3.357,1.439 1.838,0 0,0 m -6.074,35.487 7.113,0 0,-7.353 -7.113,0 0,7.353 z M -8.153,18.703 c 0,-3.917 -3.117,-7.034 -7.033,-7.034 -3.916,0 -7.034,3.117 -7.034,7.034 0,1.918 0.8,3.676 1.999,4.955 l 9.99,0 c 1.279,-1.279 2.078,-3.037 2.078,-4.955 M 0,42.041 l -30.452,0 c -4.476,0 -8.153,-3.676 -8.153,-8.152 l 0,-30.612 c 0,-4.476 3.677,-8.153 8.153,-8.153 l 30.452,0 c 4.476,0 8.153,3.677 8.153,8.153 l 0,30.612 c 0,4.476 -3.597,8.152 -8.153,8.152" /></g><path
           id="path24"
           style="fill:none;stroke:#ffffff;stroke-width:3;stroke-linecap:butt;stroke-linejoin:miter;stroke-miterlimit:10;stroke-dasharray:none;stroke-opacity:1"
           d="m 207.3,6.048 109.601,0 0,109.605 -109.601,0 0,-109.605 z" /><g
           transform="translate(278.1369,85.6231)"
           id="g26"><path
             id="path28"
             style="fill:#ffffff;fill-opacity:1;fill-rule:nonzero;stroke:none"
             d="m 0,0 -10.637,0 -0.081,0 c -10.718,0 -12.169,-7.495 -12.169,-14.103 l 0,-0.161 0,-4.593 -7.333,0 c -0.484,0 -0.806,-0.323 -0.806,-0.806 l 0,-11.363 c 0,-0.483 0.322,-0.806 0.806,-0.806 l 7.333,0 0,-24.901 c 0,-0.484 0.323,-0.806 0.806,-0.806 l 10.718,0 c 0.484,0 0.806,0.322 0.806,0.806 l 0,24.901 10.557,0 c 0.483,0 0.806,0.323 0.806,0.806 l 0,11.282 c 0,0.484 -0.323,0.806 -0.806,0.806 l -11.363,0 0,6.125 11.363,0 c 0.483,0 0.806,0.322 0.806,0.806 l 0,11.201 C 0.806,-0.403 0.403,0 0,0" /></g><path
           id="path30"
           style="fill:none;stroke:#ffffff;stroke-width:4;stroke-linecap:butt;stroke-linejoin:miter;stroke-miterlimit:10;stroke-dasharray:none;stroke-opacity:1"
           d="m 316.68,6.273 -109.38,0 0,109.38 109.38,0 0,-109.38 z" /><g
           transform="translate(64.3257,41.8311)"
           id="g32"><path
             id="path34"
             style="fill:#ffffff;fill-opacity:1;fill-rule:nonzero;stroke:none"
             d="m 0,0 c 2.115,0 2.115,3.055 2.115,4.23 0,2.115 2.115,4.231 4.23,4.231 2.116,0 5.719,-3.604 8.461,-6.346 C 16.921,0 16.921,0 19.036,0 l 6.346,0 c 0,0 4.23,0.157 4.23,4.23 0,1.332 -1.488,3.604 -6.345,8.461 -4.231,4.23 -6.424,2.037 0,10.576 3.916,5.17 6.737,9.87 6.267,11.28 -0.47,1.332 -11.281,3.369 -12.613,1.41 -4.23,-6.345 -5.014,-7.912 -6.345,-10.575 -2.115,-4.231 -2.35,-6.346 -4.231,-6.346 -1.958,0 -2.115,4.074 -2.115,6.346 0,6.972 1.019,11.985 -2.115,12.691 l -6.345,0 c -3.447,0 -6.346,-2.116 -6.346,-2.116 0,0 -2.663,-2.036 -2.115,-2.115 0.627,-0.078 4.23,0.862 4.23,-2.115 l 0,-4.23 c 0,0 0,-8.461 -2.115,-8.461 -2.115,0 -6.345,8.461 -10.575,14.806 -1.645,2.507 -2.116,2.115 -4.231,2.115 -2.271,0 -4.23,-0.078 -6.345,-0.078 -2.115,0 -2.35,-1.332 -2.115,-2.037 4.23,-10.575 7.285,-17.234 15.354,-25.616 C -11.124,0.548 -6.189,0.157 -2.037,0 -1.097,-0.078 -2.115,0 0,0" /></g><path
           id="path36"
           style="fill:none;stroke:#ffffff;stroke-width:4;stroke-linecap:butt;stroke-linejoin:miter;stroke-miterlimit:10;stroke-dasharray:none;stroke-opacity:1"
           d="m 119.283,6.2 -109.299,0 0,109.299 109.299,0 0,-109.299 z" /><path
           id="path38"
           style="fill:none;stroke:#ffffff;stroke-width:4;stroke-linecap:butt;stroke-linejoin:miter;stroke-miterlimit:10;stroke-dasharray:none;stroke-opacity:1"
           d="m 514.233,6.042 -109.616,0 0,109.616 109.616,0 0,-109.616 z" /></g></g></g></svg>