<?xml version="1.0" encoding="utf-8"?>
<!-- Generator: Adobe Illustrator 19.2.1, SVG Export Plug-In . SVG Version: 6.00 Build 0)  -->
<svg version="1.1" id="Layer_1" xmlns="http://www.w3.org/2000/svg" xmlns:xlink="http://www.w3.org/1999/xlink" x="0px" y="0px"
	 viewBox="0 0 93.106 145.298" enable-background="new 0 0 93.106 145.298" xml:space="preserve">
<path fill="#11110F" d="M13.927,28.99c0,0,9.383-7.535,28.575-7.535c19.191,0,26.299,9.383,26.299,18.908
	s-5.259,12.795-5.259,12.795H7.814v9.241h41.511c0,0-18.979,9.596-24.025,13.221H7.814v9.525h7.251c0,0-6.397,7.818-6.397,18.339
	c0,10.52,4.396,33.692,44.846,33.692c0,0,12.232,0.925,30.927-6.966v-17.486c0,0-12.653,11.231-33.835,11.231
	c-21.182,0-26.585-10.236-26.585-18.623s2.702-12.866,13.79-20.187h47.482v-9.525H56.007c0,0,12.724-6.113,19.618-13.221h9.667
	v-9.241H81.88c0,0,2.417-5.971,2.417-11.658c0-5.686-3.27-33.408-43.644-33.408c0,0-17.344-0.285-26.727,4.407V28.99z"/>
</svg>
