<?xml version="1.0" encoding="UTF-8" standalone="no"?>
<svg
   xmlns:dc="http://purl.org/dc/elements/1.1/"
   xmlns:cc="http://creativecommons.org/ns#"
   xmlns:rdf="http://www.w3.org/1999/02/22-rdf-syntax-ns#"
   xmlns:svg="http://www.w3.org/2000/svg"
   xmlns="http://www.w3.org/2000/svg"
   viewBox="0 0 125 75.445"
   height="75.445"
   width="125"
   xml:space="preserve"
   version="1.1"
   id="svg2"><metadata
     id="metadata8"><rdf:RDF><cc:Work
         rdf:about=""><dc:format>image/svg+xml</dc:format><dc:type
           rdf:resource="http://purl.org/dc/dcmitype/StillImage" /></cc:Work></rdf:RDF></metadata><defs
     id="defs6"><clipPath
       id="clipPath16"
       clipPathUnits="userSpaceOnUse"><path
         id="path18"
         d="m 0,60.356 100,0 L 100,0 0,0 0,60.356 Z" /></clipPath></defs><g
     transform="matrix(1.25,0,0,-1.25,0,75.445)"
     id="g10"><g
       id="g12"><g
         clip-path="url(#clipPath16)"
         id="g14"><g
           transform="translate(38.9756,28.4461)"
           id="g20"><path
             id="path22"
             style="fill:#ffffff;fill-opacity:1;fill-rule:nonzero;stroke:none"
             d="m 0,0 c 0.5,0.163 0.869,0.619 0.869,1.173 0,0.689 -0.561,1.25 -1.25,1.25 -0.69,0 -1.25,-0.561 -1.25,-1.25 0,-0.462 0.263,-0.85 0.637,-1.066 -0.668,-4.808 -4.754,-8.522 -9.694,-8.522 -5.459,0 -9.899,4.441 -9.899,9.9 0,4.182 2.67,7.937 6.645,9.342 l -0.333,0.942 c -4.374,-1.545 -7.312,-5.679 -7.312,-10.284 0,-6.01 4.889,-10.9 10.899,-10.9 5.455,0 9.967,4.106 10.688,9.415" /></g><g
           transform="translate(8.7881,14.075)"
           id="g24"><path
             id="path26"
             style="fill:#ffffff;fill-opacity:1;fill-rule:nonzero;stroke:none"
             d="m 0,0 0,31.612 c 0,1.834 0.631,3.591 1.765,4.993 0.135,-0.05 0.282,-0.078 0.435,-0.078 0.689,0 1.25,0.561 1.25,1.25 0,0.69 -0.561,1.25 -1.25,1.25 -0.69,0 -1.25,-0.56 -1.25,-1.25 0,-0.168 0.033,-0.328 0.093,-0.474 C -0.269,35.712 -1,33.707 -1,31.612 L -1,0 c 0,-4.932 4.012,-8.944 8.944,-8.944 l 0,1 C 3.563,-7.944 0,-4.381 0,0" /></g><g
           transform="translate(29.8436,40.7125)"
           id="g28"><path
             id="path30"
             style="fill:#ffffff;fill-opacity:1;fill-rule:nonzero;stroke:none"
             d="m 0,0 c -0.147,0.526 -0.611,0.921 -1.183,0.921 -0.69,0 -1.25,-0.56 -1.25,-1.25 0,-0.689 0.56,-1.25 1.25,-1.25 0.441,0 0.812,0.244 1.034,0.59 3.607,-0.528 6.677,-3.055 7.877,-6.626 l 0.948,0.319 C 7.354,-3.366 3.974,-0.583 0,0" /></g><g
           transform="translate(76.7363,55.3606)"
           id="g32"><path
             id="path34"
             style="fill:#ffffff;fill-opacity:1;fill-rule:nonzero;stroke:none"
             d="m 0,0 c -0.502,0 -0.93,-0.302 -1.128,-0.729 l -58.876,0 0,-1 58.851,0 C -0.964,-2.181 -0.519,-2.5 0,-2.5 c 0.689,0 1.25,0.561 1.25,1.25 C 1.25,-0.561 0.689,0 0,0" /></g><g
           transform="translate(91.8071,34.4476)"
           id="g36"><path
             id="path38"
             style="fill:#ffffff;fill-opacity:1;fill-rule:nonzero;stroke:none"
             d="m 0,0 0.046,11.203 c 0.01,2.396 -0.916,4.651 -2.607,6.348 -1.69,1.698 -3.941,2.633 -6.337,2.633 l 0,-1 c 2.128,0 4.127,-0.831 5.629,-2.338 1.501,-1.508 2.324,-3.511 2.315,-5.639 L -1,0.015 c -0.447,-0.191 -0.761,-0.634 -0.761,-1.15 0,-0.689 0.56,-1.25 1.25,-1.25 0.689,0 1.25,0.561 1.25,1.25 C 0.739,-0.629 0.434,-0.196 0,0" /></g><g
           transform="translate(90.7773,27.2386)"
           id="g40"><path
             id="path42"
             style="fill:#ffffff;fill-opacity:1;fill-rule:nonzero;stroke:none"
             d="m 0,0 -0.055,-13.296 c -0.018,-4.363 -3.582,-7.912 -7.943,-7.912 l -15.53,0 c -0.195,0.438 -0.63,0.746 -1.139,0.746 -0.689,0 -1.25,-0.561 -1.25,-1.25 0,-0.69 0.561,-1.25 1.25,-1.25 0.513,0 0.953,0.311 1.146,0.754 l 15.523,0 c 4.911,0 8.923,3.997 8.943,8.908 L 1,-0.004 0,0 Z" /></g><g
           transform="translate(55.6631,18.8894)"
           id="g44"><path
             id="path46"
             style="fill:#ffffff;fill-opacity:1;fill-rule:nonzero;stroke:none"
             d="m 0,0 c -0.867,2.597 -3.268,4.342 -5.975,4.342 -2.708,0 -5.108,-1.745 -5.975,-4.344 l -2.393,-7.29 c -1.073,-3.27 -4.106,-5.467 -7.547,-5.467 l -7.741,0 c -0.193,0.442 -0.632,0.753 -1.144,0.753 -0.69,0 -1.25,-0.56 -1.25,-1.25 0,-0.689 0.56,-1.25 1.25,-1.25 0.509,0 0.946,0.309 1.14,0.747 l 7.745,0 c 3.874,0 7.289,2.474 8.497,6.155 l 2.392,7.288 c 0.73,2.188 2.75,3.658 5.026,3.658 2.276,0 4.296,-1.47 5.026,-3.658 L 1.525,-7.743 2.475,-7.427 0,0 Z" /></g><g
           transform="translate(82.2591,31.5157)"
           id="g48"><path
             id="path50"
             style="fill:#ffffff;fill-opacity:1;fill-rule:nonzero;stroke:none"
             d="m 0,0 c -0.771,5.26 -5.301,9.315 -10.771,9.315 -6.011,0 -10.9,-4.889 -10.9,-10.9 0,-4.201 2.483,-8.08 6.327,-9.881 l 0.424,0.906 c -3.493,1.637 -5.751,5.16 -5.751,8.975 0,5.459 4.441,9.9 9.9,9.9 4.955,0 9.058,-3.662 9.776,-8.419 -0.375,-0.215 -0.64,-0.605 -0.64,-1.068 0,-0.69 0.56,-1.25 1.25,-1.25 0.689,0 1.25,0.56 1.25,1.25 C 0.865,-0.619 0.498,-0.164 0,0" /></g><g
           transform="translate(81.665,26.0198)"
           id="g52"><path
             id="path54"
             style="fill:#ffffff;fill-opacity:1;fill-rule:nonzero;stroke:none"
             d="M 0,0 -0.934,0.358 C -2.236,-3.033 -5.2,-5.367 -8.708,-5.88 c -0.205,0.41 -0.619,0.7 -1.108,0.7 -0.69,0 -1.25,-0.561 -1.25,-1.25 0,-0.69 0.56,-1.25 1.25,-1.25 0.529,0 0.977,0.333 1.159,0.799 C -4.753,-6.344 -1.446,-3.765 0,0" /></g><g
           transform="translate(35.8281,29.8269)"
           id="g56"><path
             id="path58"
             style="fill:#039ddb;fill-opacity:1;fill-rule:nonzero;stroke:none"
             d="m 0,0 c 0,4.17 -3.392,7.562 -7.562,7.562 -3.905,0 -7.14,-2.926 -7.525,-6.807 l 0.995,-0.099 c 0.334,3.367 3.141,5.906 6.53,5.906 C -3.944,6.562 -1,3.618 -1,0 -1,-2.043 -1.935,-3.902 -3.491,-5.131 -3.198,-5.316 -2.998,-5.61 -2.937,-5.965 -1.104,-4.55 0,-2.384 0,0" /></g><g
           transform="translate(32.3374,24.6964)"
           id="g60"><path
             id="path62"
             style="fill:#039ddb;fill-opacity:1;fill-rule:nonzero;stroke:none"
             d="m 0,0 c -0.193,0.123 -0.409,0.212 -0.655,0.212 -0.689,0 -1.25,-0.56 -1.25,-1.25 0,-0.689 0.561,-1.25 1.25,-1.25 0.69,0 1.25,0.561 1.25,1.25 0,0.072 -0.029,0.135 -0.041,0.204 C 0.493,-0.479 0.293,-0.186 0,0" /></g><g
           transform="translate(22.93,26.0337)"
           id="g64"><path
             id="path66"
             style="fill:#039ddb;fill-opacity:1;fill-rule:nonzero;stroke:none"
             d="m 0,0 c -0.2,-0.281 -0.502,-0.47 -0.862,-0.512 1.398,-2.007 3.696,-3.257 6.198,-3.257 l 0,1 C 3.189,-2.769 1.217,-1.707 0,0" /></g><g
           transform="translate(21.9292,26.9934)"
           id="g68"><path
             id="path70"
             style="fill:#039ddb;fill-opacity:1;fill-rule:nonzero;stroke:none"
             d="m 0,0 c -0.138,0 -0.25,-0.112 -0.25,-0.25 0,-0.275 0.5,-0.275 0.5,0 C 0.25,-0.112 0.138,0 0,0" /></g><g
           transform="translate(21.6792,26.7434)"
           id="g72"><path
             id="path74"
             style="fill:#039ddb;fill-opacity:1;fill-rule:nonzero;stroke:none"
             d="M 0,0 C 0,0.138 0.112,0.25 0.25,0.25 0.388,0.25 0.5,0.138 0.5,0 0.5,-0.275 0,-0.275 0,0 M 1.251,-0.71 C 1.396,-0.505 1.5,-0.269 1.5,0 1.5,0.689 0.939,1.25 0.25,1.25 -0.439,1.25 -1,0.689 -1,0 c 0,-0.689 0.561,-1.25 1.25,-1.25 0.049,0 0.091,0.023 0.139,0.028 0.36,0.042 0.662,0.231 0.862,0.512" /></g><g
           transform="translate(65.0283,26.4697)"
           id="g76"><path
             id="path78"
             style="fill:#039ddb;fill-opacity:1;fill-rule:nonzero;stroke:none"
             d="m 0,0 0.879,0.477 c 1.154,-2.124 3.371,-3.443 5.786,-3.443 3.628,0 6.58,2.95 6.58,6.578 0,3.165 -2.247,5.814 -5.23,6.439 0.105,0.182 0.18,0.382 0.18,0.607 0,0.138 -0.037,0.266 -0.079,0.39 3.488,-0.679 6.129,-3.753 6.129,-7.436 0,-4.178 -3.4,-7.578 -7.58,-7.578 C 3.883,-3.966 1.33,-2.447 0,0" /></g><g
           transform="translate(71.9736,36.8777)"
           id="g80"><path
             id="path82"
             style="fill:#039ddb;fill-opacity:1;fill-rule:nonzero;stroke:none"
             d="M 0,0 C -0.138,0 -0.25,0.112 -0.25,0.25 -0.25,0.388 -0.138,0.5 0,0.5 0.275,0.5 0.275,0 0,0" /></g><g
           transform="translate(71.9736,37.3777)"
           id="g84"><path
             id="path86"
             style="fill:#039ddb;fill-opacity:1;fill-rule:nonzero;stroke:none"
             d="M 0,0 C -0.138,0 -0.25,-0.112 -0.25,-0.25 -0.25,-0.388 -0.138,-0.5 0,-0.5 0.275,-0.5 0.275,0 0,0 M 1.07,-0.857 C 0.854,-1.234 0.465,-1.5 0,-1.5 c -0.689,0 -1.25,0.561 -1.25,1.25 C -1.25,0.439 -0.689,1 0,1 0.551,1 1.005,0.636 1.171,0.14 1.213,0.016 1.25,-0.112 1.25,-0.25 1.25,-0.475 1.174,-0.675 1.07,-0.857" /></g><g
           transform="translate(64.5562,30.6519)"
           id="g88"><path
             id="path90"
             style="fill:#039ddb;fill-opacity:1;fill-rule:nonzero;stroke:none"
             d="m 0,0 c 0.275,0 0.275,-0.5 0,-0.5 -0.138,0 -0.25,0.112 -0.25,0.25 C -0.25,-0.112 -0.138,0 0,0" /></g><g
           transform="translate(64.2833,31.5965)"
           id="g92"><path
             id="path94"
             style="fill:#039ddb;fill-opacity:1;fill-rule:nonzero;stroke:none"
             d="M 0,0 C 0.496,2.447 2.156,4.524 4.535,5.501 L 4.914,4.575 C 2.852,3.729 1.412,1.929 0.979,-0.192 0.776,-0.048 0.541,0.055 0.273,0.055 0.176,0.055 0.09,0.021 0,0" /></g><g
           transform="translate(64.5562,30.1519)"
           id="g96"><path
             id="path98"
             style="fill:#039ddb;fill-opacity:1;fill-rule:nonzero;stroke:none"
             d="M 0,0 C 0.275,0 0.275,0.5 0,0.5 -0.138,0.5 -0.25,0.388 -0.25,0.25 -0.25,0.112 -0.138,0 0,0 m -1.25,0.25 c 0,0.593 0.423,1.067 0.977,1.195 C -0.182,1.465 -0.097,1.5 0,1.5 0.268,1.5 0.503,1.397 0.706,1.253 1.027,1.026 1.25,0.671 1.25,0.25 1.25,-0.439 0.689,-1 0,-1 c -0.689,0 -1.25,0.561 -1.25,1.25" /></g></g></g></g></svg>